<svg width="17" height="17" viewBox="0 0 17 17" fill="none" xmlns="http://www.w3.org/2000/svg">
<g clip-path="url(#clip0)">
<path d="M16.2273 0H10.0455C9.61873 0 9.27275 0.345977 9.27275 0.772736C9.27275 1.1995 9.61873 1.54547 10.0455 1.54547H14.3618L6.40822 9.49908C6.10644 9.80087 6.10644 10.2901 6.40822 10.5919C6.55906 10.7427 6.75682 10.8182 6.95458 10.8182C7.15234 10.8182 7.35013 10.7428 7.501 10.5918L15.4546 2.63825V6.95456C15.4546 7.38132 15.8006 7.7273 16.2273 7.7273C16.6541 7.7273 17.0001 7.38132 17.0001 6.95456V0.772736C17 0.345977 16.6541 0 16.2273 0Z" fill="#1B0B53"/>
<path d="M13.1364 7.72723C12.7096 7.72723 12.3636 8.07321 12.3636 8.49997V15.4545H1.54544V4.63632H8.5C8.92676 4.63632 9.27274 4.29034 9.27274 3.86358C9.27274 3.43682 8.92676 3.09088 8.5 3.09088H0.772736C0.345977 3.09088 0 3.43686 0 3.86362V16.2273C0 16.654 0.345977 17 0.772736 17H13.1364C13.5631 17 13.9091 16.654 13.9091 16.2272V8.49997C13.9091 8.07321 13.5631 7.72723 13.1364 7.72723Z" fill="#1B0B53"/>
</g>
<defs>
<clipPath id="clip0">
<rect width="17" height="17" fill="white"/>
</clipPath>
</defs>
</svg>